<?xml version="1.0" standalone="no"?>
<!DOCTYPE svg PUBLIC "-//W3C//DTD SVG 20010904//EN"
 "http://www.w3.org/TR/2001/REC-SVG-20010904/DTD/svg10.dtd">
<svg version="1.0" xmlns="http://www.w3.org/2000/svg"
 width="234.000000pt" height="234.000000pt" viewBox="0 0 234.000000 234.000000"
 preserveAspectRatio="xMidYMid meet">
<metadata>
Created by potrace 1.16, written by Peter Selinger 2001-2019
</metadata>
<g transform="translate(0.000000,234.000000) scale(0.100000,-0.100000)"
fill="#000000" stroke="none">
<path d="M995 2333 c-283 -44 -557 -200 -731 -416 -115 -143 -181 -274 -232
-455 -25 -90 -27 -110 -27 -292 0 -168 3 -206 22 -276 69 -260 205 -476 396
-630 143 -115 274 -181 455 -232 90 -25 110 -27 292 -27 168 0 206 3 276 22
260 69 476 205 630 396 115 143 181 274 232 455 25 90 27 110 27 292 0 214
-10 270 -75 438 -107 277 -347 522 -630 643 -149 63 -239 81 -430 84 -96 2
-188 1 -205 -2z m229 -123 c40 -15 113 -87 150 -149 45 -73 88 -183 117 -299
22 -86 27 -95 59 -114 95 -58 660 -472 665 -489 4 -10 4 -28 0 -38 -6 -21
-576 -437 -661 -483 -49 -27 -54 -33 -69 -86 -47 -172 -116 -305 -191 -372
-55 -50 -94 -64 -151 -55 -40 6 -55 16 -108 68 -67 68 -113 154 -160 294 l-27
83 -319 0 -319 0 0 60 0 60 305 0 c168 0 305 4 305 8 0 4 -6 57 -14 117 -8 61
-18 145 -21 188 l-7 77 -284 0 -284 0 0 60 0 60 283 0 283 0 13 158 c7 86 15
174 18 195 l5 37 -301 0 -301 0 0 60 0 60 313 0 313 0 18 73 c77 301 232 480
370 427z"/>
<path d="M1543 1469 c4 -24 10 -95 13 -156 l7 -113 205 0 c201 0 204 0 181 18
-34 27 -381 276 -398 286 -11 7 -13 1 -8 -35z"/>
<path d="M1555 1003 c-3 -43 -10 -114 -15 -157 -6 -44 -9 -80 -8 -82 2 -1 77
52 168 118 91 66 190 137 220 159 l55 39 -207 0 -206 0 -7 -77z"/>
</g>
</svg>
